<?xml version="1.0" encoding="UTF-8"?>
<!DOCTYPE svg PUBLIC "-//W3C//DTD SVG 1.1//EN" "http://www.w3.org/Graphics/SVG/1.1/DTD/svg11.dtd">
<svg xmlns="http://www.w3.org/2000/svg" xmlns:xlink="http://www.w3.org/1999/xlink" version="1.1" width="481px" height="509px" viewBox="-0.5 -0.5 481 509" class="ge-export-svg-dark"><defs><clipPath id="mx-clip-14-211-152-74-0"><rect x="14" y="211" width="152" height="74"/></clipPath><clipPath id="mx-clip-14-293-152-26-0"><rect x="14" y="293" width="152" height="26"/></clipPath><clipPath id="mx-clip-314-41-152-26-0"><rect x="314" y="41" width="152" height="26"/></clipPath><clipPath id="mx-clip-314-211-152-26-0"><rect x="314" y="211" width="152" height="26"/></clipPath><clipPath id="mx-clip-314-391-152-26-0"><rect x="314" y="391" width="152" height="26"/></clipPath><style type="text/css">svg.ge-export-svg-dark &gt; * { filter: invert(100%) hue-rotate(180deg); }&#xa;svg.ge-export-svg-dark image { filter: invert(100%) hue-rotate(180deg) }</style><style type="text/css">@import url(https://fonts.googleapis.com/css2?family=Architects+Daughter:wght@400;500);&#xa;</style></defs><g><path d="M 170 249 L 303.63 249" fill="none" stroke="none" pointer-events="stroke"/><path d="M 308.88 249 L 301.88 252.5 L 303.63 249 L 301.88 245.5 Z" fill="none" stroke="none" pointer-events="all"/><path d="M 170 249 M 170 249 C 195.19 246.47 231.45 243.87 303.63 249 M 170 249 C 210.78 248.81 247.87 250.18 303.63 249" fill="none" stroke="rgb(0, 0, 0)" stroke-linejoin="round" stroke-linecap="round" stroke-miterlimit="10" pointer-events="stroke"/><path d="M 302.19 245.15 C 302.19 245.15 302.19 245.15 302.19 245.15 M 302.19 245.15 C 302.19 245.15 302.19 245.15 302.19 245.15 M 303.9 249.28 C 304.86 248.42 305.19 248.45 305.86 247.01 M 303.9 249.28 C 304.56 248.85 305.26 247.97 305.86 247.01" fill="none" stroke="rgb(0, 0, 0)" stroke-width="0.5" stroke-linejoin="round" stroke-linecap="round" stroke-miterlimit="10" pointer-events="all"/><path d="M 308.88 249 M 308.88 249 C 306.07 248.8 304.08 250.6 301.88 252.5 M 308.88 249 C 306.47 249.46 304.41 250.85 301.88 252.5 M 301.88 252.5 C 301.97 251.29 302.6 250.51 303.63 249 M 301.88 252.5 C 302.68 251.22 303.06 250.23 303.63 249 M 303.63 249 C 303.39 248.13 303.25 246.67 301.88 245.5 M 303.63 249 C 303.36 248.16 303.02 247.28 301.88 245.5 M 301.88 245.5 C 302.08 247.08 303.74 248.61 308.88 249 M 301.88 245.5 C 303.13 246.05 305.01 246.58 308.88 249" fill="none" stroke="rgb(0, 0, 0)" stroke-linejoin="round" stroke-linecap="round" stroke-miterlimit="10" pointer-events="all"/><path d="M 170 249 L 240 249 L 240 429 L 303.63 429" fill="none" stroke="none" pointer-events="stroke"/><path d="M 308.88 429 L 301.88 432.5 L 303.63 429 L 301.88 425.5 Z" fill="none" stroke="none" pointer-events="all"/><path d="M 170 249 M 170 249 C 187.05 246.48 199.12 252.28 240 249 M 170 249 C 195.5 248.23 222.07 248.03 240 249 M 240 249 C 238.21 311.09 234.32 363.94 240 429 M 240 249 C 240.98 301.46 243.34 351.08 240 429 M 240 429 C 259.56 427.01 286.44 431.26 303.63 429 M 240 429 C 261.18 427.16 286.74 429.62 303.63 429" fill="none" stroke="rgb(0, 0, 0)" stroke-linejoin="round" stroke-linecap="round" stroke-miterlimit="10" pointer-events="stroke"/><path d="M 302.09 425.26 C 302.09 425.26 302.09 425.26 302.09 425.26 M 302.09 425.26 C 302.09 425.26 302.09 425.26 302.09 425.26 M 303.8 429.39 C 304.75 429.13 304.81 427.48 305.76 427.13 M 303.8 429.39 C 304.17 428.93 305.09 428.04 305.76 427.13" fill="none" stroke="rgb(0, 0, 0)" stroke-width="0.5" stroke-linejoin="round" stroke-linecap="round" stroke-miterlimit="10" pointer-events="all"/><path d="M 308.88 429 M 308.88 429 C 305.86 429.58 305.69 432.41 301.88 432.5 M 308.88 429 C 305.68 429.74 304.13 431.97 301.88 432.5 M 301.88 432.5 C 303.11 430.79 302.63 430.22 303.63 429 M 301.88 432.5 C 302 431.35 302.36 431.25 303.63 429 M 303.63 429 C 303.84 428.58 302.33 427.54 301.88 425.5 M 303.63 429 C 302.75 427.67 302.26 426.8 301.88 425.5 M 301.88 425.5 C 303.99 425.92 307.08 426.67 308.88 429 M 301.88 425.5 C 303.8 425.87 304.65 426.55 308.88 429" fill="none" stroke="rgb(0, 0, 0)" stroke-linejoin="round" stroke-linecap="round" stroke-miterlimit="10" pointer-events="all"/><path d="M 170 206 L 170 191.7 Q 170 180 158.3 180 L 21.7 180 Q 10 180 10 191.7 L 10 206" fill="none" stroke="none" pointer-events="all"/><path d="M 14.73 181.46 C 14.73 181.46 14.73 181.46 14.73 181.46 M 14.73 181.46 C 14.73 181.46 14.73 181.46 14.73 181.46 M 13.81 188.61 C 17.31 184.6 17.24 183.15 20.37 181.07 M 13.81 188.61 C 15.74 186.15 16.72 185.46 20.37 181.07 M 13.55 195.01 C 16.06 188.38 26.25 183.2 25.36 181.43 M 13.55 195.01 C 16.78 188.41 24.01 182.89 25.36 181.43 M 13.29 201.41 C 19.63 189.53 27.05 184.2 31 181.03 M 13.29 201.41 C 21.03 195.28 25.72 187.35 31 181.03 M 12.37 208.56 C 22.46 202.43 29.94 193.88 35.99 181.39 M 12.37 208.56 C 21.86 198.97 29.03 188.77 35.99 181.39 M 18.02 208.17 C 26.37 198.82 33.92 191.7 41.63 181 M 18.02 208.17 C 25.6 202.12 27.8 194.95 41.63 181 M 23 208.53 C 28.34 202.26 35.42 189.65 46.62 181.36 M 23 208.53 C 27.7 203.09 35.18 193.25 46.62 181.36 M 28.65 208.13 C 34.49 200.94 34.32 195.02 52.26 180.96 M 28.65 208.13 C 32.42 200.79 40.32 194.38 52.26 180.96 M 33.63 208.49 C 38.11 198.53 47 191.26 57.25 181.32 M 33.63 208.49 C 40.77 198.16 47.51 189.05 57.25 181.32 M 39.28 208.1 C 46.56 195.74 54.89 186.57 62.89 180.93 M 39.28 208.1 C 47.49 198.24 55.57 188.91 62.89 180.93 M 44.26 208.46 C 54.11 198.35 59.52 191.71 67.88 181.29 M 44.26 208.46 C 52.58 198.72 57.64 190.42 67.88 181.29 M 49.91 208.06 C 52.1 201.79 61.92 196.35 73.52 180.89 M 49.91 208.06 C 56.43 200.45 61.62 190.4 73.52 180.89 M 54.89 208.42 C 57 204.48 64.64 192.8 78.51 181.25 M 54.89 208.42 C 64.81 199.52 72.58 189.19 78.51 181.25 M 60.54 208.03 C 62.88 204.32 70.07 190.92 84.15 180.86 M 60.54 208.03 C 65.49 200.95 69.19 198.17 84.15 180.86 M 65.52 208.39 C 72.27 197.25 82.06 189.56 89.14 181.22 M 65.52 208.39 C 72.13 200.2 78.79 193.04 89.14 181.22 M 71.17 208 C 81 201.27 83.92 192.43 94.78 180.83 M 71.17 208 C 80.51 197.56 88.44 187.98 94.78 180.83 M 76.15 208.36 C 88.05 198.42 93.79 189.28 99.77 181.19 M 76.15 208.36 C 81.9 201.55 88.7 196.18 99.77 181.19 M 81.8 207.96 C 89.4 196.83 96.13 188.94 105.41 180.79 M 81.8 207.96 C 87.28 199.31 95.17 195.25 105.41 180.79 M 86.78 208.32 C 94.08 202.79 103.34 190.57 110.4 181.15 M 86.78 208.32 C 94.16 198.59 103.25 191.16 110.4 181.15 M 92.43 207.93 C 96.73 198.22 109.96 187.79 115.39 181.51 M 92.43 207.93 C 102.91 196.93 110.99 187.86 115.39 181.51 M 97.41 208.29 C 107.43 199.9 112.11 191.89 121.03 181.12 M 97.41 208.29 C 104.86 202.2 109.76 193.46 121.03 181.12 M 102.4 208.65 C 113.01 199.87 114.06 190.21 126.02 181.48 M 102.4 208.65 C 107.35 201.58 114.32 190.86 126.02 181.48 M 108.04 208.25 C 117.33 194.6 129.99 188.38 131.66 181.08 M 108.04 208.25 C 115.76 201.41 122.57 194.02 131.66 181.08 M 113.03 208.61 C 119.3 196.53 128.69 185.77 136.65 181.44 M 113.03 208.61 C 123.5 200.15 131.75 189.18 136.65 181.44 M 118.67 208.22 C 125.85 197.01 130.9 188.19 142.29 181.05 M 118.67 208.22 C 123.43 200.9 130.04 196.98 142.29 181.05 M 123.66 208.58 C 129.46 203.05 136.77 199.12 147.28 181.41 M 123.66 208.58 C 133.24 198.17 139.57 189.72 147.28 181.41 M 129.3 208.18 C 139.5 204.03 143.78 191.32 152.92 181.01 M 129.3 208.18 C 134.58 201.84 143.2 193.77 152.92 181.01 M 134.29 208.54 C 143.51 201.14 148.06 194.69 158.56 180.62 M 134.29 208.54 C 141.54 198.9 149.67 191.91 158.56 180.62 M 139.93 208.15 C 141.52 206.55 151.18 199.92 162.9 181.73 M 139.93 208.15 C 145.49 201.27 153.6 193.48 162.9 181.73 M 144.92 208.51 C 150.69 200.16 160.05 192.61 167.23 182.85 M 144.92 208.51 C 152.16 200.85 156.07 194.52 167.23 182.85 M 150.56 208.11 C 156.56 195.83 163.83 188.1 169.59 186.23 M 150.56 208.11 C 152.67 202.44 156.66 199.83 169.59 186.23 M 155.55 208.47 C 162.13 203.15 166.38 199.49 169.33 192.62 M 155.55 208.47 C 161.09 201.47 163.7 197.49 169.33 192.62 M 161.19 208.08 C 165.21 206.7 163.52 203.67 169.72 198.27 M 161.19 208.08 C 164.6 203.47 166.93 202.33 169.72 198.27 M 166.18 208.44 C 166.29 206.36 168.03 205.89 170.12 203.91 M 166.18 208.44 C 168.01 207.05 169.01 205.68 170.12 203.91" fill="none" stroke="#f2cc8f" stroke-width="0.5" stroke-linejoin="round" stroke-linecap="round" stroke-miterlimit="10" pointer-events="all"/><path d="M 170 206 M 170 206 C 171.44 200.34 169.59 198.56 170 191.7 M 170 206 C 171 201.7 171.18 194.51 170 191.7 M 170 191.7 C 171.09 183.38 169.92 179.58 158.3 180 M 170 191.7 C 169.17 179.91 167.32 179.76 158.3 180 M 158.3 180 C 113.45 182.73 68.88 181.64 21.7 180 M 158.3 180 C 116.89 178.17 74.71 178.06 21.7 180 M 21.7 180 C 16.79 182.06 9.99 184.29 10 191.7 M 21.7 180 C 16.25 176.19 8.35 180.75 10 191.7 M 10 191.7 C 9.26 195.17 10.25 201.69 10 206 M 10 191.7 C 9.2 196.96 9.12 199.72 10 206" fill="none" stroke="#e07a5f" stroke-linejoin="round" stroke-linecap="round" stroke-miterlimit="10" pointer-events="all"/><path d="M 10 206 M 10 206 C 9.55 233.41 8.8 255.84 10 306.3 M 10 206 C 6.51 228.83 9.63 254.47 10 306.3 M 10 306.3 C 9.04 312.06 17.71 321.21 21.7 318 M 10 306.3 C 5.84 313.48 11.2 314.99 21.7 318 M 21.7 318 C 50.17 316.16 86.1 320.83 158.3 318 M 21.7 318 C 54.11 321.56 87.24 321.62 158.3 318 M 158.3 318 C 166.4 320.46 166.84 311.71 170 306.3 M 158.3 318 C 168.99 314.88 173.58 309.51 170 306.3 M 170 306.3 C 170.35 265.43 173.53 226.21 170 206 M 170 306.3 C 167.97 272.24 169.44 236.46 170 206" fill="none" stroke="#e07a5f" stroke-linejoin="round" stroke-linecap="round" stroke-miterlimit="10" pointer-events="none"/><path d="M 10 206 M 10 206 C 51.18 208.46 90.77 205.61 170 206 M 10 206 C 45.98 207.3 86.95 209.21 170 206" fill="none" stroke="#e07a5f" stroke-linejoin="round" stroke-linecap="round" stroke-miterlimit="10" pointer-events="none"/><g fill="#393C56" font-family="Architects Daughter" font-style="italic" text-anchor="middle" font-size="18px"><text x="89.5" y="203.5">Facade</text></g><rect x="10" y="206" width="160" height="74" rx="11.1" ry="11.1" fill="none" stroke="none" pointer-events="all"/><g fill="#393C56" font-family="Architects Daughter" clip-path="url(#mx-clip-14-211-152-74-0)" font-size="18px"><text x="15.5" y="229.5">objectA</text><text x="15.5" y="251.5">objectB</text><text x="15.5" y="273.5">additionalFacade</text></g><path d="M 10 284 L 170 284" fill="none" stroke="none" pointer-events="all"/><path d="M 10 284 M 10 284 C 46.61 281.02 89.5 286.96 170 284 M 10 284 C 69.8 282.29 132.11 281.08 170 284" fill="none" stroke="#e07a5f" stroke-linejoin="round" stroke-linecap="round" stroke-miterlimit="10" pointer-events="all"/><rect x="10" y="288" width="160" height="26" rx="3.9" ry="3.9" fill="none" stroke="none" pointer-events="all"/><g fill="#393C56" font-family="Architects Daughter" clip-path="url(#mx-clip-14-293-152-26-0)" font-size="18px"><text x="15.5" y="311.5">methods</text></g><path d="M 470 36 L 470 21.7 Q 470 10 458.3 10 L 321.7 10 Q 310 10 310 21.7 L 310 36" fill="none" stroke="none" pointer-events="all"/><path d="M 314.73 11.46 C 314.73 11.46 314.73 11.46 314.73 11.46 M 314.73 11.46 C 314.73 11.46 314.73 11.46 314.73 11.46 M 313.81 18.61 C 315.27 15.77 318.25 13.43 320.37 11.07 M 313.81 18.61 C 315.21 16.44 318.45 14.11 320.37 11.07 M 313.55 25.01 C 317.17 21.71 318.17 22.22 325.36 11.43 M 313.55 25.01 C 318.32 20.2 321.68 14.36 325.36 11.43 M 313.29 31.41 C 322.58 28.6 325.58 14.5 331 11.03 M 313.29 31.41 C 322.35 24.99 328.48 15.66 331 11.03 M 312.37 38.56 C 318.76 33.49 322.52 25.66 335.99 11.39 M 312.37 38.56 C 320.87 30.78 328.52 19.98 335.99 11.39 M 318.02 38.17 C 322.07 32.29 328.8 23.61 341.63 11 M 318.02 38.17 C 324.4 30 331.94 24.1 341.63 11 M 323 38.53 C 326.47 30.5 334.57 25.99 346.62 11.36 M 323 38.53 C 327.33 32.02 332.17 26.03 346.62 11.36 M 328.65 38.13 C 340.14 26.53 345.13 17.1 352.26 10.96 M 328.65 38.13 C 334.33 28.38 341.91 20.77 352.26 10.96 M 333.63 38.49 C 342.18 25.23 351.26 15.73 357.25 11.32 M 333.63 38.49 C 342.55 27.78 352.12 19.64 357.25 11.32 M 339.28 38.1 C 348.5 32.42 356.24 23.62 362.89 10.93 M 339.28 38.1 C 346.79 32.67 349.97 25.4 362.89 10.93 M 344.26 38.46 C 354.27 28.96 355.32 21.29 367.88 11.29 M 344.26 38.46 C 351.07 27.99 360.5 20.7 367.88 11.29 M 349.91 38.06 C 357.68 30.67 359.55 19.96 373.52 10.89 M 349.91 38.06 C 356.33 28.74 362.07 24.25 373.52 10.89 M 354.89 38.42 C 359.46 34.75 367.97 26.55 378.51 11.25 M 354.89 38.42 C 361.44 31.23 367.62 25.47 378.51 11.25 M 360.54 38.03 C 369.17 29.55 378.67 15.95 384.15 10.86 M 360.54 38.03 C 369.84 30.24 376.51 19.36 384.15 10.86 M 365.52 38.39 C 374.15 30.52 374.11 26.24 389.14 11.22 M 365.52 38.39 C 373.45 29.02 383.05 19.12 389.14 11.22 M 371.17 38 C 381.51 26.07 384.85 20.99 394.78 10.83 M 371.17 38 C 378.23 29.44 386.87 16.82 394.78 10.83 M 376.15 38.36 C 385.61 28.2 392.06 25.99 399.77 11.19 M 376.15 38.36 C 384.03 29.87 392.02 18.71 399.77 11.19 M 381.8 37.96 C 392.9 32.02 395.16 18.98 405.41 10.79 M 381.8 37.96 C 387.68 31.54 390.02 27.64 405.41 10.79 M 386.78 38.32 C 391.66 29.14 399.43 23.39 410.4 11.15 M 386.78 38.32 C 398.07 27.17 405.18 19.31 410.4 11.15 M 392.43 37.93 C 404.21 28.43 411.61 14.19 415.39 11.51 M 392.43 37.93 C 400.16 29.64 404.59 22.68 415.39 11.51 M 397.41 38.29 C 401.79 27.35 414.2 19.29 421.03 11.12 M 397.41 38.29 C 404.47 31.54 407.78 24.07 421.03 11.12 M 402.4 38.65 C 407.5 31.72 420.44 21.19 426.02 11.48 M 402.4 38.65 C 411.96 28.6 417.38 21.37 426.02 11.48 M 408.04 38.25 C 411.27 27.72 422.7 20.26 431.66 11.08 M 408.04 38.25 C 416.87 30.97 423.9 21.2 431.66 11.08 M 413.03 38.61 C 416.11 34.45 424.38 26.91 436.65 11.44 M 413.03 38.61 C 419.44 29.21 427.6 21.57 436.65 11.44 M 418.67 38.22 C 430.64 32.26 435.98 19.13 442.29 11.05 M 418.67 38.22 C 424.16 29.94 430.79 23.74 442.29 11.05 M 423.66 38.58 C 432.18 28.4 431.97 24.39 447.28 11.41 M 423.66 38.58 C 431.96 27.78 440.19 19.74 447.28 11.41 M 429.3 38.18 C 435.95 30.81 445.13 15.43 452.92 11.01 M 429.3 38.18 C 438.17 27.99 446.02 20.88 452.92 11.01 M 434.29 38.54 C 442.04 29.94 447.1 28.79 458.56 10.62 M 434.29 38.54 C 442.79 30.42 451.32 19.59 458.56 10.62 M 439.93 38.15 C 441.94 31.96 452.52 22.19 462.9 11.73 M 439.93 38.15 C 445.8 29.83 452.63 22.1 462.9 11.73 M 444.92 38.51 C 448.59 32.26 454 27.77 467.23 12.85 M 444.92 38.51 C 447.79 32.81 455.32 26.22 467.23 12.85 M 450.56 38.11 C 451.8 30.36 461.33 25.45 469.59 16.23 M 450.56 38.11 C 453.22 32.41 458.04 26.6 469.59 16.23 M 455.55 38.47 C 458.69 35.19 459.88 29.37 469.33 22.62 M 455.55 38.47 C 459.5 33.46 466.92 27.34 469.33 22.62 M 461.19 38.08 C 462.36 35.65 463.42 32.85 469.72 28.27 M 461.19 38.08 C 465.48 35.49 467.11 31.3 469.72 28.27 M 466.18 38.44 C 467.8 37.72 468.39 35.45 470.12 33.91 M 466.18 38.44 C 467.51 36.8 468.61 35.45 470.12 33.91" fill="none" stroke="#f2cc8f" stroke-width="0.5" stroke-linejoin="round" stroke-linecap="round" stroke-miterlimit="10" pointer-events="all"/><path d="M 470 36 M 470 36 C 468.91 31.35 471.39 26.22 470 21.7 M 470 36 C 470.45 31.66 469.5 29.14 470 21.7 M 470 21.7 C 468.45 12.37 465.45 8.71 458.3 10 M 470 21.7 C 469.89 18.08 468.44 10.1 458.3 10 M 458.3 10 C 408.26 12.11 362.85 9.79 321.7 10 M 458.3 10 C 422.96 10.18 390.79 13.32 321.7 10 M 321.7 10 C 317.53 6.81 308.97 13.61 310 21.7 M 321.7 10 C 314.61 6.45 307.68 18.22 310 21.7 M 310 21.7 C 309.45 25.71 308.52 27.11 310 36 M 310 21.7 C 309.43 26.29 309.87 33.41 310 36" fill="none" stroke="#e07a5f" stroke-linejoin="round" stroke-linecap="round" stroke-miterlimit="10" pointer-events="all"/><path d="M 310 36 M 310 36 C 309.77 63.12 307.6 87.15 310 136.3 M 310 36 C 309.17 69.36 308.88 101.57 310 136.3 M 310 136.3 C 306.67 146.29 316.74 148.23 321.7 148 M 310 136.3 C 307.43 147.97 309.72 149.64 321.7 148 M 321.7 148 C 364.02 151.13 406.02 147.65 458.3 148 M 321.7 148 C 348.91 146.89 378.31 148.76 458.3 148 M 458.3 148 C 463.16 145.67 470.71 143.94 470 136.3 M 458.3 148 C 464.67 145.38 471.86 145.99 470 136.3 M 470 136.3 C 468.68 107.49 471.68 82.21 470 36 M 470 136.3 C 469.3 114.03 466.49 90.8 470 36" fill="none" stroke="#e07a5f" stroke-linejoin="round" stroke-linecap="round" stroke-miterlimit="10" pointer-events="none"/><path d="M 310 36 M 310 36 C 350.04 35.58 388.22 34.32 470 36 M 310 36 C 361.63 37.68 413.27 37.34 470 36" fill="none" stroke="#e07a5f" stroke-linejoin="round" stroke-linecap="round" stroke-miterlimit="10" pointer-events="none"/><g fill="#393C56" font-family="Architects Daughter" font-style="italic" text-anchor="middle" font-size="18px"><text x="389.5" y="33.5">Class A</text></g><rect x="310" y="36" width="160" height="26" rx="3.9" ry="3.9" fill="none" stroke="none" pointer-events="all"/><g fill="#393C56" font-family="Architects Daughter" clip-path="url(#mx-clip-314-41-152-26-0)" font-size="18px"><text x="315.5" y="59.5">methods</text></g><path d="M 470 206 L 470 191.7 Q 470 180 458.3 180 L 321.7 180 Q 310 180 310 191.7 L 310 206" fill="none" stroke="none" pointer-events="all"/><path d="M 314.73 181.46 C 314.73 181.46 314.73 181.46 314.73 181.46 M 314.73 181.46 C 314.73 181.46 314.73 181.46 314.73 181.46 M 313.81 188.61 C 314.84 185.43 318.19 184.7 320.37 181.07 M 313.81 188.61 C 315.36 186.24 317.54 185.78 320.37 181.07 M 313.55 195.01 C 320.1 191.86 321.48 188.13 325.36 181.43 M 313.55 195.01 C 315.71 191.51 322.41 185.35 325.36 181.43 M 313.29 201.41 C 318.34 198.97 324.93 192.09 331 181.03 M 313.29 201.41 C 318.86 193.98 326.42 187.26 331 181.03 M 312.37 208.56 C 318.69 199.12 331.46 186.57 335.99 181.39 M 312.37 208.56 C 319.87 198.59 328.01 191.18 335.99 181.39 M 318.02 208.17 C 329.41 199.38 340.04 183.7 341.63 181 M 318.02 208.17 C 327.19 198.81 332.09 190.21 341.63 181 M 323 208.53 C 328.24 201.3 334.07 191.46 346.62 181.36 M 323 208.53 C 330.58 196.47 341.52 188.89 346.62 181.36 M 328.65 208.13 C 339.99 197.55 345.4 190.06 352.26 180.96 M 328.65 208.13 C 337.34 199.97 344.59 187.16 352.26 180.96 M 333.63 208.49 C 345.16 200.88 354.43 189.15 357.25 181.32 M 333.63 208.49 C 339.6 202.83 343.28 197.1 357.25 181.32 M 339.28 208.1 C 343.53 201.09 350.67 192.66 362.89 180.93 M 339.28 208.1 C 346.82 196.72 357.81 190.08 362.89 180.93 M 344.26 208.46 C 346.42 198.63 359.11 189.93 367.88 181.29 M 344.26 208.46 C 353.55 201.27 359.36 190.99 367.88 181.29 M 349.91 208.06 C 354.18 199.55 364.09 191.58 373.52 180.89 M 349.91 208.06 C 356.23 201.03 362.51 194.09 373.52 180.89 M 354.89 208.42 C 366.65 200.54 372.76 190.38 378.51 181.25 M 354.89 208.42 C 363.88 196.56 373.2 189.94 378.51 181.25 M 360.54 208.03 C 362.74 201.15 369.83 192.79 384.15 180.86 M 360.54 208.03 C 368.38 201.92 373.28 192.36 384.15 180.86 M 365.52 208.39 C 373.84 198.36 384.69 192.05 389.14 181.22 M 365.52 208.39 C 368.96 202.34 376.78 199.13 389.14 181.22 M 371.17 208 C 380.93 198.88 384.7 189.56 394.78 180.83 M 371.17 208 C 376.32 202.76 380.95 196.53 394.78 180.83 M 376.15 208.36 C 388.97 201.5 392.86 184.77 399.77 181.19 M 376.15 208.36 C 381.44 200.56 385.89 193.05 399.77 181.19 M 381.8 207.96 C 388.41 198.27 394.18 188.07 405.41 180.79 M 381.8 207.96 C 389.89 198.33 399.41 189.15 405.41 180.79 M 386.78 208.32 C 392.89 198.06 403.89 185.34 410.4 181.15 M 386.78 208.32 C 392.16 200.24 400.58 193.38 410.4 181.15 M 392.43 207.93 C 399.09 204.84 404.08 200.08 415.39 181.51 M 392.43 207.93 C 398.48 201.43 403.24 196.59 415.39 181.51 M 397.41 208.29 C 409.96 197.36 418.82 183.82 421.03 181.12 M 397.41 208.29 C 401.17 201.84 406.89 195.61 421.03 181.12 M 402.4 208.65 C 409.99 204.51 418.82 193.12 426.02 181.48 M 402.4 208.65 C 411.48 200.55 419.36 188.82 426.02 181.48 M 408.04 208.25 C 419.01 195.41 425.94 189.27 431.66 181.08 M 408.04 208.25 C 416.89 201.47 424.15 193.32 431.66 181.08 M 413.03 208.61 C 416.55 197.98 428.44 188.24 436.65 181.44 M 413.03 208.61 C 419.38 199.2 427.45 190.9 436.65 181.44 M 418.67 208.22 C 422.72 204.95 431.62 192.94 442.29 181.05 M 418.67 208.22 C 425.99 198.99 432.64 190.49 442.29 181.05 M 423.66 208.58 C 427.99 202.71 436.26 190.6 447.28 181.41 M 423.66 208.58 C 430.67 200.44 440.81 188.82 447.28 181.41 M 429.3 208.18 C 435.68 203.97 437.03 199.34 452.92 181.01 M 429.3 208.18 C 433.03 202.63 439.39 193.91 452.92 181.01 M 434.29 208.54 C 446.55 201.16 456.97 183.71 458.56 180.62 M 434.29 208.54 C 440.04 198.92 448.98 188.24 458.56 180.62 M 439.93 208.15 C 443.42 198.3 454.92 193.38 462.9 181.73 M 439.93 208.15 C 447.16 202.39 452.7 194.72 462.9 181.73 M 444.92 208.51 C 447.51 204.36 456.97 194.93 467.23 182.85 M 444.92 208.51 C 451.88 198.74 459.48 190.76 467.23 182.85 M 450.56 208.11 C 451.73 201.27 459.32 194.81 469.59 186.23 M 450.56 208.11 C 456.89 201.62 458.53 196.6 469.59 186.23 M 455.55 208.47 C 458.64 204.06 467.52 200.9 469.33 192.62 M 455.55 208.47 C 462.55 200.91 466.77 196.65 469.33 192.62 M 461.19 208.08 C 464.72 204.6 463.32 202.02 469.72 198.27 M 461.19 208.08 C 463.36 204.92 466.89 200.26 469.72 198.27 M 466.18 208.44 C 466.9 206.68 468.74 205.02 470.12 203.91 M 466.18 208.44 C 467.01 206.39 469.41 205.06 470.12 203.91" fill="none" stroke="#f2cc8f" stroke-width="0.5" stroke-linejoin="round" stroke-linecap="round" stroke-miterlimit="10" pointer-events="all"/><path d="M 470 206 M 470 206 C 471.52 199.5 472.61 199.61 470 191.7 M 470 206 C 469.33 201.62 470.1 198.04 470 191.7 M 470 191.7 C 473.82 181.37 468.98 177.83 458.3 180 M 470 191.7 C 470.61 187.05 469.56 180.43 458.3 180 M 458.3 180 C 403.07 181.5 348.82 177.93 321.7 180 M 458.3 180 C 405.71 180.73 348.24 179.13 321.7 180 M 321.7 180 C 310.27 179.55 307.95 182.93 310 191.7 M 321.7 180 C 312.96 176.71 307 186.48 310 191.7 M 310 191.7 C 309.64 196.25 312.51 198.25 310 206 M 310 191.7 C 310.23 195.62 311.19 198.51 310 206" fill="none" stroke="#e07a5f" stroke-linejoin="round" stroke-linecap="round" stroke-miterlimit="10" pointer-events="all"/><path d="M 310 206 M 310 206 C 309.99 232.83 314.41 258.46 310 306.3 M 310 206 C 311.82 225.83 312.14 248.56 310 306.3 M 310 306.3 C 312.29 312.53 315.77 315.25 321.7 318 M 310 306.3 C 309.02 313.26 317.44 315.09 321.7 318 M 321.7 318 C 369.88 320.64 425.94 317 458.3 318 M 321.7 318 C 371.03 316.23 420.02 315.9 458.3 318 M 458.3 318 C 467.92 318.88 466.59 316.18 470 306.3 M 458.3 318 C 469.56 315.89 470.15 313.27 470 306.3 M 470 306.3 C 471.02 277.5 473.84 246.09 470 206 M 470 306.3 C 470.64 279.76 471.55 249.02 470 206" fill="none" stroke="#e07a5f" stroke-linejoin="round" stroke-linecap="round" stroke-miterlimit="10" pointer-events="none"/><path d="M 310 206 M 310 206 C 348.9 209.1 393.67 209.43 470 206 M 310 206 C 345.27 204.07 379.6 205.48 470 206" fill="none" stroke="#e07a5f" stroke-linejoin="round" stroke-linecap="round" stroke-miterlimit="10" pointer-events="none"/><g fill="#393C56" font-family="Architects Daughter" font-style="italic" text-anchor="middle" font-size="18px"><text x="389.5" y="203.5">Class B</text></g><rect x="310" y="206" width="160" height="26" rx="3.9" ry="3.9" fill="none" stroke="none" pointer-events="all"/><g fill="#393C56" font-family="Architects Daughter" clip-path="url(#mx-clip-314-211-152-26-0)" font-size="18px"><text x="315.5" y="229.5">methods</text></g><path d="M 470 386 L 470 371.7 Q 470 360 458.3 360 L 321.7 360 Q 310 360 310 371.7 L 310 386" fill="none" stroke="none" pointer-events="all"/><path d="M 314.73 361.46 C 314.73 361.46 314.73 361.46 314.73 361.46 M 314.73 361.46 C 314.73 361.46 314.73 361.46 314.73 361.46 M 313.81 368.61 C 315.13 364.87 319 365.06 320.37 361.07 M 313.81 368.61 C 316.49 366.87 317.08 365.63 320.37 361.07 M 313.55 375.01 C 314.62 371.16 318.72 367.71 325.36 361.43 M 313.55 375.01 C 317.51 371.58 320.93 366.07 325.36 361.43 M 313.29 381.41 C 316.97 375.51 323.22 374.09 331 361.03 M 313.29 381.41 C 321.62 372.96 325.58 367.28 331 361.03 M 312.37 388.56 C 325 380.71 333.51 369.96 335.99 361.39 M 312.37 388.56 C 315.92 381.17 324.87 375.43 335.99 361.39 M 318.02 388.17 C 327.98 379.4 330.75 373.51 341.63 361 M 318.02 388.17 C 324.4 379.99 330.98 371.64 341.63 361 M 323 388.53 C 328.84 381.01 344.22 363.95 346.62 361.36 M 323 388.53 C 329.69 379.86 337.06 371.76 346.62 361.36 M 328.65 388.13 C 333.59 380.17 339.78 373.19 352.26 360.96 M 328.65 388.13 C 333.88 382.33 339.6 375.96 352.26 360.96 M 333.63 388.49 C 344.01 383.85 346.11 373.16 357.25 361.32 M 333.63 388.49 C 344.43 376.62 352.58 367.45 357.25 361.32 M 339.28 388.1 C 348.68 380.92 351.46 370.02 362.89 360.93 M 339.28 388.1 C 348.75 377.21 356.65 367.68 362.89 360.93 M 344.26 388.46 C 353.01 384.72 352.62 375.13 367.88 361.29 M 344.26 388.46 C 349.63 381.04 356.2 375.03 367.88 361.29 M 349.91 388.06 C 357.94 376.74 360.36 371.41 373.52 360.89 M 349.91 388.06 C 357.25 381.77 364.21 372.27 373.52 360.89 M 354.89 388.42 C 360.83 376.71 373.51 371.22 378.51 361.25 M 354.89 388.42 C 363.92 380.04 368.11 371.4 378.51 361.25 M 360.54 388.03 C 365.83 381.76 374.21 377.92 384.15 360.86 M 360.54 388.03 C 366.26 378.85 373.07 373.49 384.15 360.86 M 365.52 388.39 C 373.87 380.8 373.96 374.43 389.14 361.22 M 365.52 388.39 C 373.4 380.1 382.85 368.92 389.14 361.22 M 371.17 388 C 374.78 380.53 378.38 372.01 394.78 360.83 M 371.17 388 C 378.23 381.74 383.8 375.71 394.78 360.83 M 376.15 388.36 C 389.36 378.75 390.7 371.04 399.77 361.19 M 376.15 388.36 C 382.74 378.94 390.41 373.11 399.77 361.19 M 381.8 387.96 C 384.77 381.41 395.76 376.89 405.41 360.79 M 381.8 387.96 C 386.3 381.47 392.26 376.53 405.41 360.79 M 386.78 388.32 C 392.17 382.1 400.62 379.82 410.4 361.15 M 386.78 388.32 C 394.65 380.1 400.59 369.44 410.4 361.15 M 392.43 387.93 C 395.76 380.13 407.97 372.25 415.39 361.51 M 392.43 387.93 C 398.26 382.25 403.76 375.65 415.39 361.51 M 397.41 388.29 C 403.79 379.88 414.7 372.02 421.03 361.12 M 397.41 388.29 C 407.49 377.24 414.23 366.31 421.03 361.12 M 402.4 388.65 C 409.01 383.62 411.36 375.68 426.02 361.48 M 402.4 388.65 C 411.46 376.91 422.38 368.15 426.02 361.48 M 408.04 388.25 C 410.42 386.69 417.18 379.13 431.66 361.08 M 408.04 388.25 C 414.73 380.23 424.37 371.88 431.66 361.08 M 413.03 388.61 C 421.28 378.83 429.08 368.05 436.65 361.44 M 413.03 388.61 C 421.31 376.23 430.86 367.75 436.65 361.44 M 418.67 388.22 C 429.11 381.22 431.85 369.21 442.29 361.05 M 418.67 388.22 C 427.71 381.22 430.73 374.53 442.29 361.05 M 423.66 388.58 C 427.55 382.43 436.99 376.42 447.28 361.41 M 423.66 388.58 C 431.42 378.04 442.78 367.08 447.28 361.41 M 429.3 388.18 C 439.4 379.2 442.28 368.62 452.92 361.01 M 429.3 388.18 C 436.13 381.52 444.5 371.39 452.92 361.01 M 434.29 388.54 C 440.28 379.55 446.31 375.43 458.56 360.62 M 434.29 388.54 C 443.57 377.03 452.19 369.77 458.56 360.62 M 439.93 388.15 C 446.77 379.58 457.05 370.48 462.9 361.73 M 439.93 388.15 C 448.07 378.87 454.44 373 462.9 361.73 M 444.92 388.51 C 451.04 380.55 457.55 380.54 467.23 362.85 M 444.92 388.51 C 453.22 378.92 458.14 371.42 467.23 362.85 M 450.56 388.11 C 454.67 386.18 462 377.89 469.59 366.23 M 450.56 388.11 C 453.24 382.9 456.51 380.17 469.59 366.23 M 455.55 388.47 C 460.5 382.44 459.6 381.82 469.33 372.62 M 455.55 388.47 C 458.62 385.1 461.56 379.86 469.33 372.62 M 461.19 388.08 C 463.04 382.58 467.06 382.72 469.72 378.27 M 461.19 388.08 C 464.81 384.3 468.03 380.3 469.72 378.27 M 466.18 388.44 C 466.12 386.4 468.93 385.75 470.12 383.91 M 466.18 388.44 C 467.4 386.74 469.18 384.6 470.12 383.91" fill="none" stroke="#f2cc8f" stroke-width="0.5" stroke-linejoin="round" stroke-linecap="round" stroke-miterlimit="10" pointer-events="all"/><path d="M 470 386 M 470 386 C 471.34 379.6 471.21 379.87 470 371.7 M 470 386 C 469.46 381.03 469.15 378.28 470 371.7 M 470 371.7 C 471.56 363.34 467.77 358.26 458.3 360 M 470 371.7 C 473.71 361.04 469.3 358.95 458.3 360 M 458.3 360 C 416.66 363.75 370.94 364.93 321.7 360 M 458.3 360 C 423.56 359.88 388.31 359.23 321.7 360 M 321.7 360 C 316.52 359.51 313.3 365.57 310 371.7 M 321.7 360 C 318.39 355.6 310.49 364.55 310 371.7 M 310 371.7 C 310.86 377.2 310.91 380.82 310 386 M 310 371.7 C 310.97 376.48 311.22 382.38 310 386" fill="none" stroke="#e07a5f" stroke-linejoin="round" stroke-linecap="round" stroke-miterlimit="10" pointer-events="all"/><path d="M 310 386 M 310 386 C 312.82 411.76 310.13 428.59 310 486.3 M 310 386 C 308.52 413.2 307.4 438.24 310 486.3 M 310 486.3 C 309.25 494.73 314.07 496.99 321.7 498 M 310 486.3 C 306.29 497.61 315.5 496.06 321.7 498 M 321.7 498 C 354.46 494.73 389.18 491.76 458.3 498 M 321.7 498 C 374.19 499.16 427.04 498.36 458.3 498 M 458.3 498 C 465.67 501.59 471.5 495.28 470 486.3 M 458.3 498 C 468.24 494.84 465.57 490.89 470 486.3 M 470 486.3 C 472.54 453.04 472.77 418.09 470 386 M 470 486.3 C 467.47 448.65 469.62 409.69 470 386" fill="none" stroke="#e07a5f" stroke-linejoin="round" stroke-linecap="round" stroke-miterlimit="10" pointer-events="none"/><path d="M 310 386 M 310 386 C 346.63 391.39 378.75 386.4 470 386 M 310 386 C 351.06 386.1 391.89 384.84 470 386" fill="none" stroke="#e07a5f" stroke-linejoin="round" stroke-linecap="round" stroke-miterlimit="10" pointer-events="none"/><g fill="#393C56" font-family="Architects Daughter" font-style="italic" text-anchor="middle" font-size="18px"><text x="389.5" y="383.5">AdditionalFacade</text></g><rect x="310" y="386" width="160" height="26" rx="3.9" ry="3.9" fill="none" stroke="none" pointer-events="all"/><g fill="#393C56" font-family="Architects Daughter" clip-path="url(#mx-clip-314-391-152-26-0)" font-size="18px"><text x="315.5" y="409.5">methods</text></g><path d="M 170 243 L 240 243 L 240 79 L 303.63 79" fill="none" stroke="none" pointer-events="stroke"/><path d="M 308.88 79 L 301.88 82.5 L 303.63 79 L 301.88 75.5 Z" fill="none" stroke="none" pointer-events="all"/><path d="M 170 243 M 170 243 C 182.48 242.86 198.31 246.67 240 243 M 170 243 C 184.34 245.52 199.95 245.14 240 243 M 240 243 C 235.24 182.81 234.74 124.43 240 79 M 240 243 C 239.72 208.33 241.11 174.7 240 79 M 240 79 C 257.17 82.85 279.8 80.1 303.63 79 M 240 79 C 264.47 81.04 287.5 78.63 303.63 79" fill="none" stroke="rgb(0, 0, 0)" stroke-linejoin="round" stroke-linecap="round" stroke-miterlimit="10" pointer-events="stroke"/><path d="M 301.99 75.37 C 301.99 75.37 301.99 75.37 301.99 75.37 M 301.99 75.37 C 301.99 75.37 301.99 75.37 301.99 75.37 M 303.7 79.51 C 303.98 78.29 304.6 77.39 305.67 77.24 M 303.7 79.51 C 303.92 78.99 304.54 78.6 305.67 77.24" fill="none" stroke="rgb(0, 0, 0)" stroke-width="0.5" stroke-linejoin="round" stroke-linecap="round" stroke-miterlimit="10" pointer-events="all"/><path d="M 308.88 79 M 308.88 79 C 305.2 81.26 303.61 81.33 301.88 82.5 M 308.88 79 C 307.08 80.6 304.69 80.91 301.88 82.5 M 301.88 82.5 C 302.75 81.15 302.61 80.53 303.63 79 M 301.88 82.5 C 302.44 81.39 302.55 80.67 303.63 79 M 303.63 79 C 303.56 78.07 301.99 76.63 301.88 75.5 M 303.63 79 C 303.54 78.58 303.09 77.03 301.88 75.5 M 301.88 75.5 C 304.05 76.57 305.91 76.37 308.88 79 M 301.88 75.5 C 304.99 76.46 307.87 77.98 308.88 79" fill="none" stroke="rgb(0, 0, 0)" stroke-linejoin="round" stroke-linecap="round" stroke-miterlimit="10" pointer-events="all"/></g></svg>